<svg version="1.1" xmlns="http://www.w3.org/2000/svg" xmlns:xlink="http://www.w3.org/1999/xlink">
    <symbol id="logo" viewBox="0 0 224 64">
        <path d="M29.7942 26.7715L29.1196 27.3361C28.6699 27.7126 28.1827 28.1266 27.658 28.5407C28.9697 32.1544 31.1808 34.7517 31.743 38.5537C32.026 40.5523 31.5172 42.5827 30.3259 44.2086C29.1346 45.8345 27.3559 46.9262 25.3719 47.2491C22.1864 47.7761 18.5886 45.8563 17.2769 42.3556C16.894 43.7789 16.7049 45.2478 16.7147 46.7221C16.7147 55.7187 23.6105 58.9183 29.4944 58.9183C35.0784 58.9183 39.3883 56.208 43.3234 52.632C45.3753 48.728 46.2233 44.2987 45.7594 39.9088C44.6351 29.5194 37.5145 28.5784 32.0428 17.9631C32.1178 21.878 31.9679 24.9647 29.7942 26.7715Z" fill="#E30613"/>
        <path d="M30.9935 0.986948C31.0316 0.840877 31.0251 0.68666 30.9749 0.544332C30.9247 0.402004 30.833 0.278142 30.7117 0.188839C30.5905 0.0995366 30.4453 0.0489197 30.295 0.0435645C30.1448 0.0382093 29.9964 0.0783635 29.8692 0.15881C17.4268 10.0212 0 26.8474 0 43.6737C0 57.2627 10.7934 64.0007 22.6361 64.0007C35.1159 64.0007 42.0117 57.5638 44.7101 49.5836C38.264 63.5866 14.2787 62.9467 14.2787 45.744C14.2787 35.3923 22.4862 29.106 27.8829 24.6642C31.5931 21.6151 27.658 11.9033 30.9935 0.986948Z" fill="#0069B4"/>
        <path d="M61.3124 37.6502C61.3251 37.7683 61.2987 37.8873 61.2375 37.9889C61.1204 38.0439 60.9918 38.0697 60.8627 38.0642H59.3636C59.2469 38.0659 59.1314 38.0401 59.0263 37.9889C58.9514 37.9513 58.9139 37.8384 58.9139 37.6502V25.0775C58.8923 24.772 58.9713 24.4677 59.1388 24.2117C59.2578 24.0988 59.4 24.0133 59.5553 23.9613C59.7107 23.9093 59.8755 23.892 60.0382 23.9106H64.7978C65.4222 23.9095 66.0425 24.0113 66.6342 24.2117C67.1672 24.4082 67.6526 24.7161 68.0583 25.1151C68.4652 25.4929 68.785 25.9554 68.9952 26.4703C69.2254 27.0179 69.3403 27.6075 69.3325 28.2018C69.3174 28.6341 69.2546 29.0634 69.1451 29.4817C69.0152 30.0097 68.7862 30.5079 68.4705 30.9498C68.0832 31.4452 67.5984 31.8553 67.0464 32.1543C66.288 32.5196 65.4504 32.6879 64.6104 32.6437H61.3499V37.6502H61.3124ZM66.7841 28.3901C66.7807 28.1352 66.7429 27.8819 66.6716 27.6372C66.6006 27.3627 66.4729 27.1062 66.2969 26.8844C66.0957 26.6385 65.8386 26.4448 65.5473 26.3197C65.1563 26.1551 64.7343 26.0781 64.3106 26.0939H61.3499V30.5733H64.3481C64.6816 30.5999 65.0169 30.5567 65.333 30.4466C65.6491 30.3365 65.939 30.1617 66.1844 29.9334C66.389 29.7346 66.5485 29.4938 66.652 29.2275C66.7555 28.9611 66.8005 28.6755 66.7841 28.3901Z" fill="#25316B"/>
        <path d="M83.7234 30.9498C83.7234 33.2836 83.1988 35.0905 82.1869 36.3703C81.175 37.6502 79.601 38.2901 77.5397 38.2901C75.4785 38.2901 74.0169 37.6878 73.005 36.4456C71.9931 35.2034 71.5059 33.4342 71.5059 31.0251C71.4889 29.9785 71.6407 28.9361 71.9557 27.9384C72.22 27.0937 72.6536 26.3123 73.2299 25.6422C73.7539 25.0294 74.4067 24.5408 75.1412 24.2118C75.9094 23.8767 76.7398 23.7099 77.5772 23.7224C78.4883 23.6996 79.3942 23.8662 80.2381 24.2118C80.9839 24.5212 81.6409 25.0129 82.1494 25.6422C82.6823 26.31 83.0773 27.0778 83.3112 27.9007C83.5868 28.8934 83.7256 29.9193 83.7234 30.9498ZM81.2125 31.0251C81.2214 30.3819 81.1713 29.7392 81.0626 29.1053C80.9789 28.5401 80.8016 27.993 80.5379 27.4867C80.2663 27.0318 79.8945 26.6455 79.4511 26.3574C78.9103 26.0666 78.3028 25.9238 77.6896 25.9433C77.1289 25.9248 76.5732 26.0546 76.0781 26.3197C75.617 26.5817 75.2301 26.9574 74.9538 27.4114C74.64 27.8955 74.4118 28.4303 74.2792 28.9924C74.1264 29.6206 74.0509 30.2654 74.0544 30.9121C74.0542 31.619 74.1169 32.3245 74.2418 33.0201C74.3261 33.596 74.5305 34.1476 74.8414 34.6388C75.1096 35.0897 75.4994 35.4551 75.9657 35.6928C76.5043 35.9486 77.0939 36.0773 77.6896 36.0692C78.2899 36.0797 78.883 35.9372 79.4136 35.6551C79.8763 35.3788 80.2628 34.9906 80.5379 34.5258C80.8268 34.0374 81.0297 33.5026 81.1375 32.9449C81.1375 32.3049 81.2125 31.7026 81.2125 31.0251Z" fill="#25316B"/>
        <path d="M92.9429 35.9939C93.5006 36.0006 94.0563 35.9245 94.5918 35.768C95.0758 35.6334 95.5514 35.47 96.016 35.2787C96.0723 35.2462 96.1348 35.2261 96.1994 35.2196C96.2639 35.2132 96.3292 35.2204 96.3907 35.241C96.4657 35.2787 96.5032 35.3916 96.5781 35.4669L97.1028 36.5962C97.1602 36.7147 97.1981 36.8419 97.2152 36.9726C97.1767 37.065 97.1114 37.1437 97.0279 37.1984C96.3629 37.6045 95.6239 37.8733 94.8542 37.9889C94.1123 38.1232 93.3594 38.1863 92.6056 38.1771C90.5818 38.1771 89.0452 37.5749 87.9959 36.4079C86.9465 35.241 86.4593 33.4342 86.4593 31.0627C86.448 30.0289 86.5998 28.9997 86.9091 28.0136C87.1883 27.1641 87.6202 26.373 88.1833 25.6798C88.7343 25.045 89.4107 24.5323 90.1696 24.1741C90.9866 23.8229 91.8667 23.6435 92.7555 23.6471C93.3709 23.6411 93.9856 23.6915 94.5918 23.7977C95.2707 23.9273 95.9272 24.1556 96.5407 24.4752C96.5888 24.4898 96.6335 24.514 96.6721 24.5464C96.7108 24.5787 96.7425 24.6185 96.7655 24.6634C96.803 24.7387 96.7655 24.8517 96.6906 25.0399L96.1284 26.2068C96.1052 26.3075 96.0531 26.3991 95.9785 26.4703C95.941 26.5079 95.8286 26.5079 95.6787 26.4326C95.2401 26.2604 94.7891 26.122 94.3295 26.0186C93.8502 25.9088 93.3594 25.8582 92.8679 25.868C92.2677 25.8575 91.6746 26 91.144 26.2821C90.6595 26.556 90.2481 26.9434 89.9447 27.4114C89.6184 27.9204 89.3779 28.48 89.2326 29.0676C89.0818 29.709 89.0064 30.366 89.0078 31.025C89.0107 31.657 89.0734 32.2872 89.1952 32.9072C89.3056 33.4583 89.522 33.9826 89.8323 34.4505C90.1438 34.9061 90.5707 35.27 91.069 35.5045C91.6226 35.8713 92.2816 36.0434 92.9429 35.9939Z" fill="#25316B"/>
        <path d="M108.271 30.3475C108.633 30.48 108.965 30.6849 109.245 30.9498C109.512 31.1889 109.739 31.4683 109.92 31.7779C110.099 32.0805 110.226 32.4114 110.295 32.7566C110.369 33.103 110.407 33.4563 110.407 33.8106C110.421 34.4095 110.293 35.0032 110.032 35.5422C109.795 36.061 109.45 36.523 109.021 36.8973C108.591 37.2939 108.079 37.5896 107.521 37.7631C106.93 37.9636 106.31 38.0653 105.685 38.0642H100.813C100.49 38.0987 100.167 38.004 99.9137 37.8007C99.7462 37.5447 99.6672 37.2405 99.6888 36.9349V25.1152C99.6672 24.8096 99.7462 24.5054 99.9137 24.2494C100.036 24.1431 100.18 24.0645 100.335 24.019C100.49 23.9736 100.653 23.9623 100.813 23.9859L105.46 23.9482C106.04 23.9509 106.618 24.014 107.184 24.1365C107.681 24.2645 108.151 24.4812 108.571 24.7764C108.958 25.0575 109.268 25.4333 109.47 25.868C109.704 26.3613 109.82 26.9028 109.808 27.449C109.814 28.0324 109.659 28.6061 109.358 29.1053C109.083 29.57 108.696 29.9582 108.234 30.2346V30.3475H108.271ZM102.2 29.4441H105.46C105.662 29.4352 105.862 29.41 106.06 29.3688C106.275 29.3203 106.478 29.2309 106.66 29.1053C106.856 28.9756 107.012 28.793 107.109 28.5783C107.237 28.3078 107.301 28.0117 107.297 27.7125C107.312 27.4988 107.275 27.2846 107.191 27.088C107.106 26.8914 106.975 26.7183 106.809 26.5832C106.448 26.2966 105.996 26.1497 105.535 26.1692H102.162V29.4441H102.2ZM107.934 33.66C107.947 33.3693 107.9 33.079 107.797 32.8071C107.694 32.5351 107.536 32.2874 107.334 32.079C107.09 31.8626 106.805 31.6977 106.496 31.5943C106.187 31.4908 105.86 31.4508 105.535 31.4768H102.2V35.881H105.498C105.909 35.8933 106.318 35.8163 106.697 35.6551C106.986 35.543 107.243 35.3621 107.447 35.1281C107.622 34.9198 107.749 34.6757 107.821 34.4129C107.89 34.1677 107.928 33.9147 107.934 33.66Z" fill="#25316B"/>
        <path d="M125.361 30.9498C125.361 33.2836 124.836 35.0905 123.824 36.3703C122.812 37.6502 121.238 38.2901 119.177 38.2901C117.116 38.2901 115.654 37.6878 114.642 36.4456C113.63 35.2034 113.143 33.4342 113.143 31.0251C113.126 29.9785 113.278 28.9361 113.593 27.9384C113.857 27.0937 114.291 26.3123 114.867 25.6422C115.391 25.0294 116.044 24.5408 116.778 24.2118C117.547 23.8767 118.377 23.7099 119.214 23.7224C120.125 23.6996 121.031 23.8662 121.875 24.2118C122.621 24.5212 123.278 25.0129 123.787 25.6422C124.32 26.31 124.714 27.0778 124.948 27.9007C125.224 28.8934 125.363 29.9193 125.361 30.9498ZM122.812 31.0251C122.821 30.3819 122.771 29.7392 122.662 29.1053C122.579 28.5401 122.401 27.993 122.138 27.4867C121.866 27.0318 121.494 26.6455 121.051 26.3574C120.51 26.0666 119.903 25.9238 119.289 25.9433C118.729 25.9248 118.173 26.0546 117.678 26.3197C117.217 26.5817 116.83 26.9574 116.554 27.4114C116.24 27.8955 116.012 28.4303 115.879 28.9924C115.726 29.6206 115.651 30.2654 115.654 30.9121C115.654 31.619 115.717 32.3245 115.841 33.0201C115.926 33.596 116.13 34.1476 116.441 34.6388C116.709 35.0897 117.099 35.4551 117.565 35.6928C118.104 35.9486 118.694 36.0773 119.289 36.0692C119.89 36.0797 120.483 35.9372 121.013 35.6551C121.476 35.3788 121.863 34.9906 122.138 34.5258C122.427 34.0374 122.629 33.5026 122.737 32.9449C122.775 32.3049 122.812 31.7026 122.812 31.0251Z" fill="#25316B"/>
        <path d="M129.258 38.0642L129.033 41.038C129.033 41.1886 128.996 41.3015 128.921 41.3392C128.855 41.3864 128.777 41.4127 128.696 41.4144H127.384C127.305 41.4066 127.228 41.3809 127.159 41.3392C127.103 41.2472 127.064 41.1448 127.047 41.038L126.785 36.8973C126.782 36.6788 126.82 36.4618 126.897 36.2574C126.959 36.1531 127.046 36.067 127.152 36.0075C127.257 35.9481 127.376 35.9174 127.497 35.9186L128.209 35.8433C128.433 35.5858 128.633 35.3086 128.808 35.0152C128.956 34.711 129.081 34.3965 129.183 34.0741C129.297 33.7043 129.384 33.3269 129.445 32.9448C129.534 32.4845 129.596 32.0195 129.633 31.5521L130.457 25.1528C130.506 24.7996 130.663 24.4705 130.907 24.2118C131.211 23.9904 131.582 23.8837 131.956 23.9106H138.14C138.329 23.8936 138.519 23.9148 138.699 23.973C138.879 24.0312 139.046 24.1252 139.189 24.2494C139.405 24.5426 139.511 24.9022 139.489 25.2657V35.8433L140.314 35.881C140.651 35.9186 140.838 35.9939 140.913 36.1445C140.995 36.2935 141.022 36.4669 140.988 36.6338L140.726 40.9251C140.734 41.031 140.708 41.1368 140.651 41.2262C140.588 41.2794 140.508 41.3064 140.426 41.3015H139.002C138.92 41.3064 138.84 41.2794 138.777 41.2262C138.72 41.1368 138.694 41.031 138.702 40.9251L138.59 37.9513H129.258V38.0642ZM137.016 26.1315H132.631L132.144 30.1216C132.031 31.1756 131.919 32.0038 131.806 32.6437C131.694 33.2836 131.619 33.8106 131.544 34.2247C131.49 34.5512 131.389 34.8681 131.244 35.1658C131.134 35.4117 131.009 35.6506 130.87 35.881H136.978V26.1315H137.016Z" fill="#25316B"/>
        <path d="M155.305 30.9498C155.305 33.2836 154.78 35.0905 153.768 36.3703C152.756 37.6502 151.182 38.2901 149.121 38.2901C147.06 38.2901 145.598 37.6878 144.586 36.4456C143.574 35.2034 143.087 33.4342 143.087 31.0251C143.07 29.9785 143.222 28.9361 143.537 27.9384C143.801 27.0937 144.235 26.3123 144.811 25.6422C145.335 25.0294 145.988 24.5408 146.722 24.2118C147.491 23.8767 148.321 23.7099 149.158 23.7224C150.07 23.6996 150.975 23.8662 151.819 24.2118C152.565 24.5212 153.222 25.0129 153.731 25.6422C154.264 26.31 154.659 27.0778 154.892 27.9007C155.186 28.8895 155.325 29.9181 155.305 30.9498ZM152.794 31.0251C152.803 30.3819 152.753 29.7392 152.644 29.1053C152.56 28.5401 152.383 27.993 152.119 27.4867C151.848 27.0318 151.476 26.6455 151.032 26.3574C150.492 26.0666 149.884 25.9238 149.271 25.9433C148.71 25.9248 148.154 26.0546 147.659 26.3197C147.198 26.5817 146.811 26.9574 146.535 27.4114C146.221 27.8955 145.993 28.4303 145.861 28.9924C145.708 29.6206 145.632 30.2654 145.636 30.9121C145.635 31.619 145.698 32.3245 145.823 33.0201C145.907 33.596 146.112 34.1476 146.423 34.6388C146.691 35.0897 147.081 35.4551 147.547 35.6928C148.086 35.9486 148.675 36.0773 149.271 36.0692C149.871 36.0797 150.464 35.9372 150.995 35.6551C151.458 35.3788 151.844 34.9906 152.119 34.5258C152.408 34.0374 152.611 33.5026 152.719 32.9449C152.719 32.3049 152.794 31.7026 152.794 31.0251Z" fill="#25316B"/>
        <path d="M165.986 30.5358C166.29 30.6357 166.579 30.7749 166.848 30.9498C167.061 31.0956 167.25 31.2733 167.41 31.4768C167.552 31.6866 167.665 31.9145 167.747 32.1544C167.822 32.4179 167.934 32.6814 168.009 32.9825L169.246 37.6502C169.265 37.6916 169.274 37.7365 169.274 37.782C169.274 37.8274 169.265 37.8723 169.246 37.9137C169.209 38.0266 169.134 38.0643 168.946 38.0643H167.185C167.108 38.0702 167.031 38.0573 166.96 38.0266C166.915 38.0036 166.876 37.9717 166.843 37.9329C166.811 37.8941 166.787 37.8491 166.773 37.8008L165.611 33.359C165.423 32.6438 165.124 32.1544 164.711 31.9285C164.199 31.6775 163.632 31.5609 163.062 31.5898H160.814L160.851 37.7632C160.86 37.8573 160.833 37.9514 160.776 38.0266C160.739 38.0643 160.626 38.0643 160.514 38.0643H158.827C158.715 38.0643 158.603 38.0643 158.565 38.0266C158.528 37.989 158.49 37.9137 158.49 37.7632V24.2871C158.481 24.1929 158.508 24.0988 158.565 24.0236C158.648 23.9899 158.738 23.977 158.827 23.9859H160.551C160.701 23.9859 160.776 23.9859 160.814 24.0236C160.851 24.0612 160.889 24.1365 160.851 24.2871V29.5194H162.987C163.2 29.5246 163.414 29.512 163.625 29.4818C163.866 29.4441 164.096 29.3542 164.299 29.2183C164.535 29.057 164.738 28.8527 164.899 28.616C165.107 28.3064 165.259 27.9623 165.348 27.5996L166.248 24.2118C166.285 24.0612 166.323 23.9859 166.435 23.9859C166.506 23.9553 166.583 23.9424 166.66 23.9483H168.309C168.497 23.9483 168.571 23.9859 168.609 24.0989C168.628 24.1857 168.628 24.2756 168.609 24.3624L167.71 27.9761C167.585 28.4933 167.383 28.9884 167.11 29.4441C166.838 29.8557 166.48 30.2026 166.061 30.4605V30.5358H165.986Z" fill="#25316B"/>
        <path d="M179.252 34.9775H174.156L173.256 37.7254C173.226 37.8323 173.16 37.9254 173.069 37.9889C172.964 38.0401 172.848 38.0658 172.731 38.0642H170.895C170.745 38.0642 170.67 38.0266 170.633 37.9513C170.595 37.8545 170.595 37.747 170.633 37.6501L174.98 24.8893C175.055 24.7011 175.13 24.5129 175.167 24.3999C175.225 24.2861 175.316 24.1938 175.43 24.1364C175.535 24.0707 175.648 24.0201 175.767 23.9859C175.927 23.9531 176.091 23.9405 176.254 23.9482H177.116C177.427 23.9312 177.737 23.9961 178.016 24.1364C178.256 24.3361 178.416 24.6172 178.465 24.9269L182.813 37.6501C182.85 37.747 182.85 37.8545 182.813 37.9513C182.775 38.0266 182.7 38.0642 182.55 38.0642H180.714C180.6 38.0751 180.485 38.0623 180.377 38.0266C180.275 37.9659 180.196 37.8733 180.152 37.7631L179.252 34.9775ZM174.755 32.8695H178.615L177.566 29.4817L176.741 26.6208H176.629L175.805 29.4064L174.755 32.8695Z" fill="#25316B"/>
        <path d="M196.155 37.9889C196.037 38.0438 195.909 38.0696 195.78 38.0642H194.243C194.127 38.0658 194.011 38.04 193.906 37.9889C193.831 37.9512 193.794 37.8383 193.794 37.6501V31.7026H187.572V37.6501C187.572 37.8383 187.535 37.9512 187.46 37.9889C187.343 38.0438 187.214 38.0696 187.085 38.0642H185.549C185.432 38.0658 185.316 38.04 185.211 37.9889C185.136 37.9512 185.099 37.8383 185.099 37.6501V24.3999C185.099 24.2117 185.136 24.0988 185.211 24.0611C185.316 24.01 185.432 23.9842 185.549 23.9858H187.085C187.214 23.9804 187.343 24.0062 187.46 24.0611C187.535 24.0988 187.572 24.2117 187.572 24.3999V29.5946H193.794V24.3999C193.794 24.2117 193.831 24.0988 193.906 24.0611C194.011 24.01 194.127 23.9842 194.243 23.9858H195.78C195.909 23.9804 196.037 24.0062 196.155 24.0611C196.23 24.0988 196.23 24.2117 196.23 24.3999V37.6501C196.267 37.8383 196.23 37.9512 196.155 37.9889Z" fill="#25316B"/>
        <path d="M207.21 34.9776H202.114L201.214 37.7255C201.184 37.8324 201.118 37.9255 201.027 37.989C200.922 38.0401 200.806 38.0659 200.689 38.0643H198.853C198.703 38.0643 198.628 38.0266 198.591 37.9514C198.553 37.8545 198.553 37.747 198.591 37.6502L202.901 24.927C202.976 24.7388 203.05 24.5506 203.088 24.4377C203.145 24.3239 203.237 24.2315 203.35 24.1742C203.455 24.1085 203.569 24.0578 203.688 24.0236C203.848 23.9909 204.011 23.9782 204.175 23.9859H205.037C205.348 23.9689 205.658 24.0338 205.936 24.1742C206.177 24.3738 206.337 24.6549 206.386 24.9647L210.733 37.6879C210.771 37.7847 210.771 37.8922 210.733 37.989C210.696 38.0643 210.621 38.1019 210.471 38.1019H208.635C208.521 38.1128 208.406 38.1 208.297 38.0643C208.196 38.0036 208.117 37.911 208.072 37.8008L207.21 34.9776ZM202.713 32.8696H206.573L205.524 29.4818L204.699 26.6209H204.587L203.763 29.4065L202.713 32.8696Z" fill="#25316B"/>
        <path d="M214.893 25.3033C214.895 24.9254 215.012 24.5573 215.23 24.2493C215.358 24.1372 215.506 24.0526 215.668 24.0008C215.829 23.949 215.999 23.9311 216.167 23.9482H222.726C223.588 23.9482 224 24.3999 224 25.3033V37.6877C224.009 37.7819 223.982 37.876 223.925 37.9512C223.836 38.0086 223.731 38.035 223.625 38.0265H221.939C221.834 38.0291 221.73 38.003 221.639 37.9512C221.564 37.9136 221.564 37.8007 221.564 37.6877V26.1314H217.142L217.029 27.9006C216.917 29.4063 216.804 30.7615 216.692 31.9284C216.612 32.9771 216.41 34.013 216.092 35.0151C215.862 35.8133 215.451 36.5475 214.893 37.1607C214.277 37.7697 213.515 38.2103 212.682 38.4406C212.573 38.4793 212.454 38.4793 212.345 38.4406C212.243 38.3799 212.164 38.2873 212.12 38.1771L211.707 36.9725C211.67 36.8757 211.67 36.7682 211.707 36.6714C211.768 36.5692 211.86 36.4899 211.97 36.4455C212.48 36.2495 212.931 35.9255 213.281 35.5045C213.627 35.0567 213.882 34.5451 214.031 33.9987C214.234 33.2228 214.36 32.4283 214.406 31.6273C214.481 30.6862 214.593 29.5193 214.706 28.1265L214.893 25.3033Z" fill="#25316B"/>
        <path d="M59.0189 44.2038C59.0053 44.0321 59.0531 43.8613 59.1538 43.7219C59.2192 43.6638 59.296 43.62 59.3792 43.5934C59.4625 43.5668 59.5504 43.558 59.6372 43.5676H62.5117C62.8762 43.5646 63.2381 43.6284 63.5798 43.7558C63.8921 43.8729 64.1777 44.0521 64.4193 44.2828C64.6567 44.5158 64.8441 44.7951 64.9702 45.1034C65.1033 45.4372 65.1695 45.7941 65.1651 46.1537C65.1583 46.4216 65.1219 46.688 65.0564 46.9479C64.9725 47.2847 64.8167 47.5991 64.6 47.8694C64.3832 48.1398 64.1106 48.3597 63.8009 48.5139C63.3722 48.7195 62.9003 48.8177 62.4255 48.7999H60.1319V52.0786C60.1319 52.169 60.1319 52.2254 60.0832 52.2518C60.0261 52.2833 59.9607 52.2964 59.8958 52.2894H59.255C59.1926 52.2947 59.1301 52.2816 59.0751 52.2518C59.0376 52.2254 59.0189 52.169 59.0189 52.0786V44.2038ZM64.0033 46.2139C64.0021 46.0317 63.9756 45.8505 63.9246 45.6756C63.8678 45.487 63.772 45.3125 63.6435 45.1637C63.4912 45.0007 63.3059 44.8723 63.1001 44.7872C62.8253 44.6763 62.5305 44.6237 62.2344 44.6329H60.1432V47.7986H62.2606C62.7346 47.8352 63.2044 47.6869 63.5723 47.3846C63.7217 47.2306 63.8373 47.0469 63.9116 46.8452C63.9858 46.6435 64.0171 46.4285 64.0033 46.2139Z" fill="#25316B"/>
        <path d="M71.435 47.52C71.6753 47.6028 71.8978 47.7305 72.0908 47.8964C72.2679 48.0431 72.4177 48.2203 72.533 48.4197C72.6487 48.6139 72.7346 48.8246 72.7879 49.0445C72.8427 49.2636 72.8704 49.4887 72.8703 49.7146C72.8763 50.0789 72.8021 50.4401 72.653 50.7723C72.5146 51.0821 72.3129 51.3592 72.0608 51.5854C71.8013 51.8188 71.4981 51.998 71.1689 52.1124C70.8142 52.2397 70.44 52.3034 70.0633 52.3006H67.1326C66.958 52.3166 66.7842 52.2625 66.6491 52.1501C66.5406 52.0187 66.488 51.8496 66.503 51.6795V44.2263C66.4893 44.0558 66.5372 43.8861 66.6379 43.7482C66.7047 43.6887 66.7834 43.6442 66.8687 43.6176C66.954 43.591 67.044 43.5829 67.1326 43.5939H69.8834C70.2343 43.5912 70.5842 43.6316 70.9253 43.7143C71.2214 43.7828 71.5006 43.9109 71.746 44.0908C71.9786 44.2649 72.1652 44.4937 72.2894 44.757C72.4291 45.0624 72.4971 45.396 72.4881 45.732C72.492 46.0935 72.3932 46.4487 72.2032 46.7559C72.0257 47.0578 71.7655 47.3021 71.4537 47.4598L71.435 47.52ZM67.6385 47.0946H69.9134C70.0634 47.0921 70.2128 47.0744 70.3594 47.0419C70.5247 47.0032 70.682 46.9357 70.8241 46.8424C70.979 46.7398 71.1074 46.6018 71.1989 46.4397C71.3008 46.237 71.3498 46.0116 71.3413 45.7847C71.3468 45.6263 71.3182 45.4687 71.2574 45.3225C71.1966 45.1763 71.105 45.045 70.989 44.9377C70.7227 44.7095 70.379 44.5936 70.0296 44.614H67.6535L67.6385 47.0946ZM71.7085 49.6167C71.7154 49.4071 71.6786 49.1984 71.6005 49.004C71.5224 48.8095 71.4048 48.6336 71.2551 48.4874C70.8908 48.1739 70.4182 48.017 69.9396 48.0508H67.6385V51.2579H69.9396C70.2401 51.2674 70.5391 51.2123 70.8166 51.0961C71.0256 51.0027 71.2122 50.8654 71.3638 50.6933C71.4914 50.5384 71.5835 50.3572 71.6336 50.1625C71.6818 49.9846 71.707 49.8011 71.7085 49.6167Z" fill="#25316B"/>
        <path d="M78.7692 47.6292C78.9581 47.6846 79.1375 47.7683 79.3014 47.8776C79.4367 47.9746 79.5556 48.0928 79.6537 48.2277C79.7496 48.3606 79.8265 48.5063 79.8823 48.6606C79.9459 48.8318 79.9997 49.0065 80.0434 49.1838L80.823 52.0635C80.8379 52.11 80.8379 52.16 80.823 52.2065C80.823 52.263 80.7518 52.2893 80.6618 52.2893H79.9123C79.8661 52.289 79.8203 52.28 79.7774 52.263C79.7492 52.2527 79.7246 52.2345 79.7066 52.2104C79.6886 52.1863 79.678 52.1575 79.6762 52.1275L78.9266 49.357C78.8747 49.1502 78.7952 48.9514 78.6905 48.766C78.6081 48.6175 78.4942 48.489 78.357 48.3895C78.2224 48.2974 78.0707 48.2334 77.911 48.2013C77.7242 48.1679 77.5348 48.1516 77.3451 48.1524H75.5912V52.0898C75.5988 52.1459 75.5839 52.2027 75.55 52.2479C75.501 52.2716 75.4467 52.282 75.3926 52.278H74.6768C74.6251 52.2807 74.5735 52.2703 74.5268 52.2479C74.5077 52.2267 74.4935 52.2016 74.485 52.1743C74.4766 52.147 74.4743 52.1181 74.4781 52.0898V43.7783C74.4743 43.7506 74.4767 43.7223 74.4851 43.6956C74.4935 43.6689 74.5078 43.6445 74.5268 43.624C74.5735 43.6016 74.6251 43.5912 74.6768 43.5939H75.4076C75.4605 43.5904 75.5134 43.6008 75.5612 43.624C75.5912 43.6466 75.5987 43.6955 75.5912 43.7783V47.1323H77.2364C77.3774 47.1327 77.518 47.1188 77.6562 47.0909C77.8081 47.0605 77.953 47.0018 78.0834 46.9177C78.2303 46.8164 78.3573 46.6888 78.4582 46.5413C78.5884 46.3388 78.6846 46.1163 78.743 45.8825L79.2977 43.7332C79.2997 43.7042 79.3095 43.6763 79.326 43.6525C79.3425 43.6287 79.3651 43.6097 79.3913 43.5976C79.4321 43.5821 79.4752 43.5732 79.5188 43.5713H80.2009C80.2983 43.5713 80.3545 43.6014 80.3695 43.6579C80.3831 43.7071 80.3831 43.7592 80.3695 43.8084L79.8261 46.0331C79.7488 46.3579 79.6224 46.669 79.4513 46.9554C79.2877 47.2171 79.0574 47.4303 78.7842 47.5727L78.7692 47.6292Z" fill="#25316B"/>
        <path d="M83.63 51.5554C83.6328 51.6715 83.6124 51.7869 83.5699 51.8949C83.5274 52.0029 83.4637 52.1012 83.3826 52.184C83.3011 52.2682 83.203 52.3344 83.0946 52.3785C82.9862 52.4225 82.8699 52.4435 82.753 52.44C82.6372 52.4421 82.5221 52.4209 82.4146 52.3776C82.3071 52.3343 82.2094 52.2697 82.1271 52.1878C82.0053 52.0636 81.9226 51.9061 81.8896 51.735C81.8566 51.5638 81.8747 51.3867 81.9415 51.2259C82.0084 51.065 82.1211 50.9276 82.2655 50.8308C82.4098 50.7341 82.5794 50.6823 82.753 50.6821C82.8693 50.6779 82.9852 50.6978 83.0935 50.7405C83.2018 50.7833 83.3001 50.848 83.3824 50.9307C83.4647 51.0133 83.5292 51.1121 83.5717 51.2209C83.6143 51.3297 83.6341 51.4461 83.63 51.5629V51.5554Z" fill="#25316B"/>
        <path d="M87.2539 51.3558C87.6843 51.3711 88.1129 51.2915 88.5093 51.1224C88.8309 50.9745 89.1114 50.7496 89.3263 50.4674C89.5463 50.172 89.7021 49.8334 89.7836 49.4737C89.882 49.056 89.9422 48.6301 89.9634 48.2013H86.3394C86.2645 48.2013 86.2157 48.2013 86.197 48.1524C86.173 48.1061 86.1626 48.0539 86.167 48.0018V47.4372C86.1611 47.3839 86.1716 47.33 86.197 47.2829C86.2157 47.2528 86.2645 47.2377 86.3394 47.2377H89.9485C89.9198 46.8769 89.8494 46.5206 89.7386 46.1762C89.6407 45.8655 89.4842 45.5767 89.2776 45.3255C89.0721 45.0842 88.8162 44.8914 88.5281 44.7608C88.1854 44.6168 87.8163 44.5475 87.445 44.5575C87.1128 44.5576 86.7814 44.5904 86.4556 44.6554C86.1376 44.7167 85.8272 44.8127 85.5299 44.9415C85.5084 44.9567 85.4834 44.9664 85.4573 44.9696C85.4312 44.9729 85.4046 44.9697 85.38 44.9603C85.3456 44.9338 85.3207 44.8968 85.3088 44.8549L85.0615 44.2828C85.0202 44.1924 85.0052 44.1284 85.024 44.0908C85.0445 44.0489 85.079 44.0156 85.1214 43.9967C85.5145 43.7904 85.9386 43.6505 86.3769 43.5826C86.755 43.5223 87.1371 43.4909 87.5199 43.4885C88.0318 43.4833 88.5402 43.574 89.019 43.7558C89.4523 43.9288 89.8379 44.2037 90.1433 44.5575C90.4726 44.9451 90.7142 45.3997 90.8516 45.8901C91.0276 46.5015 91.111 47.1359 91.099 47.7722C91.099 49.3382 90.7792 50.5101 90.1396 51.288C89.8079 51.68 89.3902 51.9893 88.9194 52.1918C88.4487 52.3943 87.9375 52.4843 87.4263 52.455C87.2276 52.455 87.0178 52.455 86.7929 52.4324C86.568 52.4098 86.3469 52.3834 86.1146 52.3458C85.8823 52.3019 85.6532 52.2428 85.4287 52.1689C85.2068 52.0967 84.9932 52.0008 84.7916 51.8828C84.7502 51.8514 84.7157 51.8116 84.6904 51.7661C84.6904 51.7285 84.6904 51.6607 84.7429 51.5628L84.9753 51.0396C84.9947 50.9957 85.0243 50.957 85.0615 50.9267C85.1027 50.8966 85.1701 50.9003 85.2601 50.9267C85.5596 51.0614 85.8707 51.1684 86.1895 51.2466C86.5383 51.3278 86.8959 51.3645 87.2539 51.3558Z" fill="#25316B"/>
        <path d="M93.6551 52.2593C93.6077 52.2834 93.5545 52.2938 93.5015 52.2894H92.8344C92.7815 52.2916 92.7289 52.2813 92.6807 52.2593C92.6432 52.2367 92.6245 52.184 92.6245 52.1012V45.9542C92.6245 45.8714 92.6245 45.8187 92.6807 45.7999C92.7279 45.7747 92.781 45.763 92.8344 45.766H93.5015C93.555 45.7604 93.6088 45.7723 93.6551 45.7999C93.6851 45.7999 93.7001 45.8714 93.7001 45.9542V48.3633H94.7645C94.89 48.3642 95.0154 48.3541 95.1392 48.3332C95.2566 48.3112 95.3686 48.2664 95.469 48.2014C95.579 48.1286 95.6755 48.0368 95.7538 47.9304C95.8513 47.7898 95.9236 47.6331 95.9675 47.4674L96.4509 45.9165C96.4697 45.8488 96.4959 45.8074 96.5334 45.7923C96.57 45.776 96.6095 45.7671 96.6495 45.766H97.3279C97.3953 45.766 97.4366 45.7886 97.4516 45.8375C97.4643 45.8792 97.4643 45.9238 97.4516 45.9655L96.9793 47.5954C96.9212 47.8422 96.8251 48.0785 96.6945 48.2956C96.5731 48.4965 96.3923 48.6544 96.1773 48.7473V48.7736C96.449 48.8402 96.6889 48.9999 96.8557 49.2253C96.9941 49.4443 97.1026 49.6811 97.178 49.9292L97.8076 52.0786C97.8151 52.1235 97.8151 52.1693 97.8076 52.2141C97.8076 52.2631 97.7514 52.2894 97.6614 52.2894H96.9306C96.8933 52.2943 96.8555 52.2943 96.8182 52.2894C96.777 52.2894 96.747 52.2367 96.732 52.1727L96.1249 50.1212C96.0927 49.9833 96.0338 49.8532 95.9515 49.7382C95.8692 49.6232 95.7651 49.5257 95.6452 49.4512C95.4176 49.3185 95.1587 49.2496 94.8956 49.2517H93.6964V52.12C93.6889 52.1903 93.6751 52.2367 93.6551 52.2593Z" fill="#25316B"/>
        <path d="M104.418 48.9957C104.418 50.1074 104.169 50.9569 103.669 51.5441C103.397 51.8453 103.061 52.0809 102.686 52.2334C102.311 52.3859 101.906 52.4514 101.503 52.4249C101.108 52.452 100.711 52.3888 100.344 52.2402C99.9767 52.0915 99.6476 51.8613 99.3815 51.5667C98.8943 50.9983 98.6544 50.1513 98.6544 49.0333C98.6462 48.5405 98.7184 48.0497 98.8681 47.5803C98.9962 47.1863 99.2027 46.8226 99.4752 46.5113C99.7281 46.2252 100.042 46.0001 100.393 45.8525C100.757 45.7028 101.147 45.6273 101.54 45.6304C101.941 45.6051 102.343 45.6727 102.714 45.8281C103.085 45.9834 103.416 46.2223 103.68 46.5263C104.208 47.2365 104.469 48.1109 104.418 48.9957ZM103.343 49.0333C103.345 48.7193 103.32 48.4057 103.268 48.096C103.227 47.8169 103.136 47.5477 102.998 47.3018C102.867 47.0736 102.68 46.883 102.455 46.7484C102.182 46.5983 101.873 46.5254 101.563 46.5376C101.278 46.5311 100.996 46.5999 100.746 46.7371C100.517 46.8679 100.321 47.0511 100.176 47.2717C100.021 47.5117 99.9084 47.7765 99.8425 48.0546C99.7693 48.3629 99.7328 48.6788 99.7338 48.9957C99.7301 49.3402 99.759 49.6843 99.82 50.0233C99.8667 50.3048 99.9672 50.5745 100.116 50.8176C100.253 51.0338 100.443 51.2113 100.667 51.3333C100.933 51.4659 101.228 51.5293 101.525 51.5177C101.83 51.5296 102.132 51.4566 102.398 51.3069C102.629 51.1716 102.823 50.98 102.961 50.7498C103.106 50.5036 103.206 50.2334 103.257 49.9518C103.316 49.6493 103.345 49.3416 103.343 49.0333Z" fill="#25316B"/>
        <path d="M108.5 51.48C108.778 51.4797 109.055 51.443 109.324 51.3709C109.556 51.3084 109.782 51.2252 109.999 51.1224C110.07 51.081 110.126 51.0697 110.156 51.0886C110.192 51.1131 110.223 51.1452 110.246 51.1827L110.49 51.7097C110.507 51.7297 110.518 51.7534 110.525 51.7789C110.531 51.8043 110.531 51.8309 110.525 51.8564C110.519 51.8819 110.508 51.9058 110.491 51.926C110.475 51.9463 110.454 51.9624 110.43 51.9732C110.108 52.1515 109.758 52.2724 109.395 52.3308C109.044 52.3924 108.688 52.4239 108.331 52.4249C107.944 52.4504 107.557 52.3882 107.198 52.2428C106.838 52.0975 106.516 51.8728 106.255 51.5854C105.775 51.0283 105.539 50.1964 105.539 49.0973C105.532 48.6116 105.601 48.1278 105.741 47.6631C105.862 47.2634 106.059 46.8913 106.322 46.5677C106.572 46.267 106.887 46.0286 107.244 45.8713C107.632 45.7071 108.049 45.625 108.47 45.6304C108.787 45.6297 109.104 45.6625 109.414 45.7282C109.72 45.7981 110.014 45.9122 110.287 46.067C110.312 46.0757 110.335 46.0903 110.353 46.1095C110.371 46.1287 110.384 46.152 110.392 46.1774C110.399 46.2029 110.4 46.2297 110.395 46.2557C110.39 46.2817 110.379 46.306 110.362 46.3268L110.1 46.8349C110.083 46.876 110.056 46.9121 110.021 46.9403C109.991 46.9629 109.939 46.9403 109.868 46.9102C109.66 46.8166 109.444 46.7422 109.223 46.6881C108.978 46.626 108.726 46.5957 108.473 46.5978C108.191 46.5885 107.911 46.653 107.661 46.785C107.41 46.9169 107.198 47.1118 107.046 47.3506C106.887 47.5929 106.774 47.862 106.712 48.1449C106.64 48.4533 106.605 48.7692 106.607 49.086C106.604 49.398 106.633 49.7096 106.693 50.0157C106.743 50.2846 106.847 50.5406 106.997 50.7686C107.139 50.9889 107.337 51.1669 107.57 51.2843C107.86 51.4241 108.179 51.4912 108.5 51.48Z" fill="#25316B"/>
        <path d="M114.312 45.6304C114.727 45.6211 115.14 45.6887 115.53 45.8299C115.852 45.9476 116.142 46.1412 116.374 46.3945C116.595 46.647 116.761 46.9432 116.861 47.2641C116.974 47.6294 117.029 48.0107 117.022 48.3933C117.027 48.5584 117.002 48.7231 116.947 48.8789C116.906 48.9926 116.836 49.0936 116.745 49.1725C116.657 49.242 116.556 49.2921 116.449 49.3193C116.334 49.3499 116.215 49.3651 116.096 49.3645H112.532C112.523 49.703 112.578 50.0401 112.693 50.3583C112.788 50.607 112.933 50.8328 113.121 51.0208C113.297 51.1922 113.509 51.3209 113.743 51.3972C113.986 51.4698 114.238 51.5066 114.492 51.5064C114.764 51.507 115.035 51.4716 115.298 51.401C115.525 51.3463 115.745 51.2654 115.954 51.1601C115.972 51.1454 115.994 51.1353 116.017 51.1304C116.04 51.1255 116.064 51.126 116.087 51.1318C116.109 51.1376 116.131 51.1486 116.149 51.164C116.166 51.1793 116.181 51.1986 116.19 51.2203L116.449 51.7435C116.508 51.8602 116.482 51.943 116.377 51.992C116.084 52.1768 115.758 52.3044 115.418 52.3684C115.085 52.4309 114.748 52.4624 114.41 52.4625C113.987 52.47 113.565 52.4025 113.166 52.263C112.811 52.1387 112.491 51.9309 112.232 51.6569C111.962 51.3556 111.761 50.9984 111.644 50.6105C111.5 50.1219 111.432 49.6141 111.442 49.1048C111.433 48.6092 111.507 48.1157 111.659 47.6442C111.785 47.2498 111.989 46.885 112.259 46.5714C112.507 46.2855 112.816 46.0581 113.162 45.9052C113.521 45.7311 113.914 45.6373 114.312 45.6304ZM116.006 48.4761C116.009 48.2232 115.984 47.9707 115.931 47.7233C115.888 47.4995 115.797 47.2877 115.665 47.1022C115.53 46.9193 115.351 46.7741 115.144 46.6806C114.884 46.5701 114.603 46.5175 114.32 46.5263C114.068 46.5206 113.819 46.5761 113.593 46.6881C113.387 46.7913 113.205 46.9376 113.061 47.1172C112.912 47.3003 112.797 47.508 112.72 47.7308C112.635 47.9671 112.585 48.2142 112.57 48.4648L116.006 48.4761Z" fill="#25316B"/>
        <path d="M123.91 49.022C123.913 49.4688 123.853 49.9137 123.73 50.3433C123.621 50.7334 123.441 51.0998 123.198 51.4236C122.963 51.7376 122.656 51.9896 122.302 52.1576C121.907 52.3422 121.475 52.4336 121.039 52.4249C120.811 52.4249 120.56 52.4249 120.29 52.3872C119.997 52.3573 119.709 52.298 119.428 52.2103V54.6232C119.428 54.6985 119.428 54.7474 119.387 54.7663C119.344 54.7911 119.294 54.8017 119.244 54.7964H118.551C118.5 54.801 118.45 54.7905 118.405 54.7663C118.371 54.7474 118.352 54.6985 118.352 54.6232V46.308C118.35 46.2609 118.363 46.2144 118.39 46.1761C118.418 46.1378 118.457 46.1099 118.502 46.0972C118.908 45.913 119.336 45.7863 119.777 45.7207C120.19 45.6591 120.607 45.6277 121.024 45.6266C121.466 45.6166 121.905 45.7039 122.31 45.8826C122.662 46.0433 122.97 46.2859 123.209 46.5903C123.452 46.9104 123.63 47.2748 123.734 47.6631C123.855 48.1058 123.914 48.563 123.91 49.022ZM122.786 49.022C122.795 48.6346 122.748 48.2479 122.647 47.8739C122.58 47.5981 122.452 47.3409 122.272 47.121C122.106 46.9362 121.898 46.7942 121.665 46.707C121.409 46.6176 121.139 46.5743 120.867 46.579C120.622 46.5809 120.378 46.601 120.136 46.6392C119.9 46.6732 119.668 46.7313 119.443 46.8124V51.2617C119.709 51.3416 119.981 51.402 120.256 51.4424C120.462 51.47 120.67 51.4838 120.878 51.4838C121.141 51.4876 121.403 51.4443 121.65 51.3558C121.886 51.2704 122.095 51.1251 122.257 50.9342C122.441 50.7141 122.576 50.4576 122.655 50.1814C122.754 49.8034 122.798 49.4128 122.786 49.022Z" fill="#25316B"/>
        <path d="M129.663 48.7848C130.013 48.8835 130.313 49.1122 130.502 49.4247C130.666 49.7151 130.751 50.0434 130.75 50.3771C130.754 50.6476 130.696 50.9155 130.581 51.1601C130.472 51.3887 130.319 51.5934 130.131 51.7624C129.932 51.9292 129.703 52.0569 129.457 52.1388C129.184 52.2312 128.898 52.277 128.61 52.2743H125.791C125.723 52.2828 125.654 52.2761 125.589 52.2545C125.524 52.2329 125.464 52.1971 125.414 52.1496C125.364 52.102 125.326 52.044 125.301 51.9797C125.276 51.9153 125.266 51.8462 125.271 51.7774V46.2628C125.265 46.194 125.274 46.1249 125.298 46.06C125.321 45.995 125.358 45.9359 125.405 45.8863C125.509 45.7962 125.643 45.7491 125.78 45.7546H128.475C128.976 45.729 129.472 45.8606 129.895 46.131C130.085 46.2735 130.235 46.4618 130.333 46.6783C130.43 46.8948 130.472 47.1325 130.454 47.3695C130.455 47.6457 130.38 47.9169 130.236 48.1524C130.103 48.3833 129.903 48.5683 129.663 48.6832V48.7848ZM126.346 48.3896H128.437C128.535 48.3872 128.632 48.372 128.726 48.3444C128.835 48.3183 128.938 48.271 129.03 48.2051C129.125 48.1325 129.205 48.0417 129.266 47.9379C129.335 47.8073 129.369 47.6605 129.363 47.5125C129.364 47.4069 129.345 47.3021 129.305 47.2044C129.265 47.1068 129.206 47.0182 129.131 46.9441C129.046 46.8646 128.946 46.803 128.838 46.7629C128.729 46.7228 128.613 46.7051 128.497 46.7107H126.346V48.3896ZM129.637 50.3131C129.642 50.1677 129.617 50.0226 129.563 49.8877C129.509 49.7527 129.427 49.6308 129.322 49.5301C129.055 49.3142 128.716 49.2079 128.374 49.2328H126.346V51.4424H128.362C128.582 51.4515 128.802 51.4143 129.007 51.3332C129.149 51.2669 129.277 51.1722 129.382 51.0547C129.473 50.9454 129.538 50.8167 129.573 50.6782C129.606 50.5591 129.626 50.4367 129.633 50.3131H129.637Z" fill="#25316B"/>
        <path d="M132.11 45.9542C132.11 45.8714 132.11 45.8187 132.159 45.7923C132.203 45.7635 132.256 45.7503 132.309 45.7547H133.006C133.06 45.7481 133.114 45.7615 133.159 45.7923C133.177 45.8149 133.191 45.8408 133.198 45.8686C133.206 45.8965 133.208 45.9256 133.204 45.9542V50.7499H133.253C133.452 50.4337 133.628 50.1476 133.789 49.8841C133.95 49.6206 134.134 49.3458 134.34 49.0484L136.214 46.1537C136.273 46.0401 136.351 45.9381 136.446 45.8526C136.558 45.7834 136.69 45.753 136.821 45.766H137.14C137.268 45.7619 137.394 45.8062 137.492 45.8902C137.542 45.9384 137.581 45.9972 137.605 46.0623C137.63 46.1274 137.64 46.1972 137.634 46.2666V52.1201C137.638 52.1457 137.635 52.1719 137.628 52.1966C137.62 52.2213 137.607 52.244 137.589 52.2631C137.542 52.2872 137.489 52.2976 137.436 52.2932H136.754C136.703 52.2955 136.653 52.2852 136.607 52.2631C136.574 52.2405 136.559 52.1916 136.559 52.1201V47.3695H136.484C136.382 47.5201 136.296 47.6556 136.218 47.7874L135.981 48.1638L135.742 48.5402C135.659 48.672 135.569 48.8113 135.468 48.9618L133.538 51.8942C133.472 52.0086 133.383 52.1075 133.276 52.184C133.172 52.2435 133.054 52.2723 132.935 52.2669H132.65C132.515 52.2758 132.381 52.2343 132.275 52.1502C132.226 52.1014 132.189 52.0423 132.165 51.9772C132.142 51.9121 132.133 51.8426 132.14 51.7737L132.11 45.9542Z" fill="#25316B"/>
        <path d="M141.918 51.4801C142.195 51.48 142.471 51.4433 142.739 51.371C142.971 51.3097 143.197 51.2265 143.413 51.1225C143.488 51.0811 143.541 51.0698 143.574 51.0886C143.609 51.1134 143.639 51.1455 143.66 51.1827L143.908 51.7097C143.925 51.73 143.936 51.754 143.942 51.7796C143.948 51.8053 143.948 51.8319 143.942 51.8575C143.935 51.8831 143.923 51.9068 143.906 51.9269C143.89 51.947 143.868 51.9629 143.844 51.9732C143.526 52.1513 143.18 52.2723 142.821 52.3308C142.47 52.3924 142.113 52.4239 141.757 52.4249C141.369 52.4495 140.981 52.3862 140.621 52.2396C140.261 52.0929 139.938 51.8668 139.677 51.578C139.201 51.0209 138.961 50.189 138.961 49.0898C138.954 48.6041 139.023 48.1204 139.163 47.6556C139.285 47.2558 139.484 46.8837 139.748 46.5602C139.997 46.2605 140.311 46.0223 140.666 45.8638C141.054 45.6996 141.471 45.6176 141.892 45.6229C142.21 45.6224 142.528 45.6552 142.84 45.7208C143.144 45.7907 143.437 45.9048 143.709 46.0596C143.734 46.0683 143.757 46.0828 143.775 46.102C143.793 46.1212 143.806 46.1445 143.814 46.17C143.821 46.1954 143.822 46.2223 143.817 46.2482C143.812 46.2742 143.801 46.2986 143.784 46.3193L143.526 46.8275C143.507 46.8688 143.479 46.905 143.443 46.9329C143.417 46.9555 143.364 46.9329 143.289 46.9028C143.082 46.8086 142.866 46.7342 142.645 46.6807C142.4 46.6181 142.148 46.5877 141.895 46.5903C141.6 46.5832 141.308 46.6547 141.048 46.7974C140.815 46.9335 140.617 47.1215 140.467 47.347C140.312 47.5908 140.199 47.8594 140.134 48.1412C140.062 48.4496 140.027 48.7655 140.029 49.0823C140.028 49.3943 140.057 49.7056 140.115 50.0121C140.168 50.2799 140.271 50.5353 140.419 50.7649C140.562 50.984 140.76 51.1618 140.992 51.2806C141.28 51.4205 141.598 51.4889 141.918 51.4801Z" fill="#25316B"/>
    </symbol>
    <symbol id="mail" viewBox="0 0 20 14">
        <path d="M17 0H3C2.20435 0 1.44129 0.316071 0.87868 0.87868C0.31607 1.44129 0 2.20435 0 3L0 11C0 11.7956 0.31607 12.5587 0.87868 13.1213C1.44129 13.6839 2.20435 14 3 14H17C17.7956 14 18.5587 13.6839 19.1213 13.1213C19.6839 12.5587 20 11.7956 20 11V3C20 2.20435 19.6839 1.44129 19.1213 0.87868C18.5587 0.316071 17.7956 0 17 0ZM16.33 2L10 6.75L3.67 2H16.33ZM17 12H3C2.73478 12 2.48043 11.8946 2.29289 11.7071C2.10536 11.5196 2 11.2652 2 11V3.25L9.4 8.8C9.5731 8.92982 9.78363 9 10 9C10.2164 9 10.4269 8.92982 10.6 8.8L18 3.25V11C18 11.2652 17.8946 11.5196 17.7071 11.7071C17.5196 11.8946 17.2652 12 17 12Z"/>
    </symbol>

    <symbol id="close" viewBox="0 0 47.971 47.971">
        <path d="M28.228,23.986L47.092,5.122c1.172-1.171,1.172-3.071,0-4.242c-1.172-1.172-3.07-1.172-4.242,0L23.986,19.744L5.121,0.88
		c-1.172-1.172-3.07-1.172-4.242,0c-1.172,1.171-1.172,3.071,0,4.242l18.865,18.864L0.879,42.85c-1.172,1.171-1.172,3.071,0,4.242
		C1.465,47.677,2.233,47.97,3,47.97s1.535-0.293,2.121-0.879l18.865-18.864L42.85,47.091c0.586,0.586,1.354,0.879,2.121,0.879
		s1.535-0.293,2.121-0.879c1.172-1.171,1.172-3.071,0-4.242L28.228,23.986z"/>
    </symbol>

    <symbol id="download" viewBox="0 0 24 24">
        <!-- <rect y="0" fill="none" width="24" height="24"/> -->
        <path d="M17.099,13.356c-0.926-0.729-1.806-1.478-2.392-2.063c-0.762-0.762-1.44-1.5-2.03-2.203C13.597,6.247,14,4.781,14,4
        c0-3.319-1.199-4-3-4C9.632,0,8,0.711,8,4.096C8,5.588,8.817,7.4,10.438,9.505c-0.396,1.21-0.862,2.605-1.386,4.179
        c-0.252,0.755-0.525,1.454-0.815,2.101c-0.235,0.105-0.464,0.211-0.685,0.321c-0.795,0.397-1.55,0.755-2.25,1.087
        C2.109,18.704,0,19.704,0,21.679C0,23.112,1.558,24,3,24c1.859,0,4.667-2.483,6.718-6.667c2.129-0.84,4.775-1.462,6.864-1.852
        C18.256,16.769,20.104,18,21,18c2.479,0,3-1.434,3-2.636C24,13,21.299,13,20,13C19.597,13,18.515,13.119,17.099,13.356z M3,22
        c-0.571,0-0.958-0.27-1-0.321c0-0.709,2.114-1.711,4.159-2.68c0.13-0.062,0.262-0.123,0.396-0.187C5.053,20.99,3.567,22,3,22z
        M10,4.096C10,2,10.65,2,11,2c0.707,0,1,0,1,2c0,0.422-0.281,1.477-0.796,3.123C10.419,5.914,10,4.878,10,4.096z M10.767,14.844
        c0.063-0.174,0.123-0.35,0.182-0.527c0.371-1.113,0.705-2.113,1.003-3.014c0.415,0.457,0.862,0.925,1.342,1.404
        c0.188,0.188,0.652,0.609,1.272,1.138C13.332,14.113,12.021,14.446,10.767,14.844z M22,15.364c0,0.449,0,0.636-0.928,0.642
        c-0.272-0.059-0.902-0.43-1.68-0.959C19.675,15.016,19.883,15,20,15C21.478,15,21.897,15.145,22,15.364z"/>
    </symbol> 

    <symbol id="siluet" viewBox="0 0 24 24">
        <!-- <rect y="0" fill="none" width="24" height="24"/> -->
        <path d="M3.439,21.241c0.214,0.119,0.435,0.242,0.661,0.467c0.281,0.28,0.496,0.636,0.685,0.951
        c0.153,0.254,0.298,0.494,0.455,0.661c0.38,0.4,0.711,0.568,1.219,0.62C6.877,23.98,7.257,24,7.621,24
        c0.712,0,1.407-0.077,2.186-0.244c0.532-0.115,1.385-0.442,1.862-0.714c0.112-0.065,1.067-0.557,1.216-0.624
        c0.216-0.105,0.599-0.228,1.042-0.369c0.447-0.143,0.953-0.305,1.341-0.47c0.613-0.255,1.641-0.523,2.558-0.55
        c0.191-0.007,0.406-0.012,0.635-0.018c0.807-0.021,1.812-0.047,2.632-0.163c0.595-0.08,1.202-0.272,1.445-0.456
        c0.074-0.058,0.095-0.157,0.1-0.229c0.013-0.205-0.085-0.45-0.243-0.611c-0.03-0.03-0.058-0.06-0.086-0.09
        c-0.182-0.195-0.354-0.38-1.194-0.574c-0.311-0.073-0.608-0.108-0.907-0.108c-0.69,0-1.303,0.194-1.952,0.4
        c-0.154,0.049-0.311,0.099-0.472,0.147c-0.554,0.173-1.117,0.257-1.72,0.257c-0.43,0-0.834-0.043-1.174-0.085
        c-0.695-0.088-1.472-0.919-1.677-1.575c-0.215-0.659-0.255-1.24-0.132-1.883c0.116-0.604,0.346-1.057,0.568-1.494
        c0.06-0.119,0.12-0.236,0.177-0.356c0.276-0.592,1.298-1.881,1.656-2.267c0.595-0.647,1.016-1.124,1.424-1.584l0.18-0.203
        c0.167-0.191,0.333-0.401,0.526-0.645c0.252-0.319,0.537-0.681,0.906-1.101c0.429-0.481,0.674-0.789,0.984-1.179
        c0.114-0.143,0.237-0.298,0.382-0.478c0.241-0.311,0.649-1.006,0.715-1.324c0.067-0.304-0.05-0.61-0.197-0.721
        c-0.083-0.06-0.203-0.094-0.336-0.094c-0.187,0-0.368,0.066-0.497,0.181C19.096,5.199,18.737,5.7,18.357,6.23
        c-0.241,0.336-0.489,0.683-0.769,1.006c-0.341,0.401-0.681,0.761-1.009,1.108c-0.234,0.248-0.456,0.483-0.659,0.712
        c-0.315,0.352-0.598,0.683-0.865,0.994c-0.368,0.429-0.715,0.835-1.069,1.207c-0.375,0.393-0.802,0.61-1.204,0.61
        c-0.238,0-0.451-0.078-0.599-0.219c-0.385-0.363-0.194-1.146-0.048-1.448c0.091-0.191,0.191-0.387,0.415-0.827l0.392-0.773
        c0.302-0.6,0.681-1.499,1.159-2.746C14.274,5.4,14.505,4.88,14.748,4.33c0.248-0.56,0.529-1.195,0.801-1.877
        c0.343-0.862,0.205-1.384-0.084-1.52c-0.44-0.208-0.835-0.054-1.099,0.452c-0.359,0.692-0.577,1.173-1.738,3.97
        c-0.058,0.141-0.201,0.416-0.383,0.764c-0.238,0.459-0.535,1.03-0.8,1.6c-0.169,0.362-0.325,0.747-0.462,1.086
        c-0.301,0.744-0.519,1.282-0.778,1.441c-0.491,0.299-0.973,0.219-1.151-0.189C8.872,9.64,8.957,8.94,9.057,8.13
        c0.041-0.338,0.085-0.688,0.11-1.038c0.098-1.272,0.216-2.03,0.307-2.547c0.062-0.352,0.219-1.003,0.371-1.634
        c0.145-0.603,0.296-1.226,0.36-1.577c0.073-0.413,0.033-0.895-0.089-1.097C10.061,0.144,9.888,0,9.649,0
        C9.519,0,9.39,0.043,9.265,0.128C9.048,0.267,8.862,0.641,8.711,1.241C8.522,2.002,8.421,2.49,8.313,3.006
        C8.204,3.529,8.091,4.069,7.877,4.958C7.84,5.116,7.795,5.294,7.744,5.493C7.591,6.098,7.381,6.926,7.185,8.015
        c-0.053,0.3-0.089,0.626-0.127,0.971c-0.053,0.482-0.107,0.98-0.217,1.513c-0.069,0.319-0.438,0.577-0.62,0.645
        c-0.127,0.049-0.246,0.096-0.386,0.096c-0.179,0-0.356-0.075-0.572-0.244c-0.341-0.264-1.054-1.778-1.324-2.482
        C3.71,7.933,3.471,7.307,3.274,6.674C3.162,6.309,3.08,5.993,2.994,5.658c-0.119-0.462-0.242-0.94-0.462-1.617
        c-0.104-0.323-0.42-0.437-0.659-0.437c-0.057,0-0.111,0.007-0.152,0.019C1.557,3.671,1.342,3.787,1.362,4.241
        C1.394,4.954,1.64,5.967,1.689,6.163c0.248,0.971,0.427,1.504,0.676,2.241l0.216,0.64c0.207,0.609,0.421,1.239,0.6,1.965
        c0.167,0.681,0.263,1.686,0.033,2.46l-0.1,0.328c-0.228,0.747-0.572,1.876-0.816,2.965c-0.106,0.453-0.281,1.442-0.264,2.284
        c0.018,0.782,0.196,1.211,0.707,1.702C2.994,20.993,3.22,21.119,3.439,21.241z"/>
    </symbol>

</svg>

